<svg id="Group_7" data-name="Group 7" xmlns="http://www.w3.org/2000/svg" width="100.181" height="30.015" viewBox="0 0 100.181 30.015">
  <g id="Group_6" data-name="Group 6">
    <path id="Path_19" data-name="Path 19" d="M37.44,54.471a1.124,1.124,0,0,1-.51-.2l-5.809-5.5a3.31,3.31,0,0,1-.611-.6,2.128,2.128,0,0,1-.357-.5A1.365,1.365,0,0,1,30,47.016v-.8a1.361,1.361,0,0,1,.153-.65c.153-.2.255-.4.357-.5l.611-.6,5.758-5.653a.873.873,0,0,1,.51-.15.662.662,0,0,1,.509.2.881.881,0,0,1,.2.5v1.151c0,.1-.051.15-.051.2a.377.377,0,0,1-.1.2.62.62,0,0,1-.1.15c0,.05-.051.1-.152.2l-.153.15a.607.607,0,0,0-.2.2c-.1.1-.2.15-.2.2L32.65,46.367c-.1.1-.2.2-.2.3a.361.361,0,0,0,.2.3l4.484,4.352a.7.7,0,0,0,.2.15c.1.1.153.149.2.149l.153.15.152.15c.051.05.051.1.1.15s.051.15.1.2c0,.05.051.15.051.2v1.251a.635.635,0,0,1-.2.5A.541.541,0,0,1,37.44,54.471Z" transform="translate(-30 -30.158)" fill="#ee4036"/>
    <path id="Path_20" data-name="Path 20" d="M43.045,60.015c-.1,0-.2-.15-.2-.4v-.149L47.529,30.6c.1-.4.2-.6.357-.6h2.752c.152,0,.2.15.2.4v.15L46.153,59.415c-.1.4-.2.6-.356.6Z" transform="translate(-30 -30)" fill="#ee4036"/>
    <path id="Path_21" data-name="Path 21" d="M55.275,56.727a.507.507,0,0,1-.408-.15c-.1-.1-.1-.3-.1-.6V34.215a1.246,1.246,0,0,1,.1-.6.507.507,0,0,1,.408-.15h2.9a.507.507,0,0,1,.408.15c.1.1.1.3.1.6v8.6a.37.37,0,0,0,.051.25c.051.1.1.1.153.1h5.962c.051,0,.1-.05.152-.1.051-.1.1-.15.1-.25v-8.6a.857.857,0,0,1,.153-.6.507.507,0,0,1,.408-.15h2.955a.4.4,0,0,1,.357.15c.1.1.1.3.1.6V55.977a1.246,1.246,0,0,1-.1.6.467.467,0,0,1-.357.15H65.67a.388.388,0,0,1-.255-.05l-.2-.2a1.235,1.235,0,0,1-.1-.5V46.071c0-.25-.051-.349-.2-.349H58.893c-.153,0-.2.1-.2.349v9.906a.857.857,0,0,1-.153.6.507.507,0,0,1-.408.15Z" transform="translate(-30 -30.063)" fill="#ee4036"/>
    <path id="Path_22" data-name="Path 22" d="M76.473,56.727a.4.4,0,0,1-.357-.15.857.857,0,0,1-.153-.6V36.466c0-.249-.051-.4-.2-.4h-3.77q-.076,0-.153-.15a1.092,1.092,0,0,1-.051-.451v-1.3a1,1,0,0,1,.1-.55.5.5,0,0,1,.407-.15H83.556a.4.4,0,0,1,.356.15c.1.1.1.3.1.55v1.3a.915.915,0,0,1-.1.5.664.664,0,0,1-.407.1H80.091c-.153,0-.2.15-.2.4V55.977a1.017,1.017,0,0,1-.153.65.507.507,0,0,1-.408.15H76.473Z" transform="translate(-30 -30.063)" fill="#ee4036"/>
    <path id="Path_23" data-name="Path 23" d="M86.919,56.726c-.306,0-.459-.25-.459-.8v-.1l.917-21.511c0-.6.2-.9.51-.9h3.159a.873.873,0,0,1,.51.15.851.851,0,0,1,.306.6l3.363,15.308a.174.174,0,0,0,.051.1h.1c.051,0,.051-.05.051-.1l3.363-15.208c.1-.5.357-.8.764-.8h3.21c.306,0,.459.35.459.9l.917,21.511v.1c0,.5-.153.8-.509.8h-2.191c-.306,0-.51-.3-.51-.85l-.611-16.709c0-.05,0-.1-.051-.1s-.051,0-.1.05L96.55,55.976c-.1.5-.357.8-.663.8H94.613c-.305,0-.56-.25-.662-.8L90.435,39.267c0-.05-.051-.1-.1-.05v.1l-.662,16.559c0,.6-.153.85-.459.85Z" transform="translate(-30 -30.062)" fill="#ee4036"/>
    <path id="Path_24" data-name="Path 24" d="M108.932,56.727a.4.4,0,0,1-.356-.15c-.1-.1-.1-.3-.1-.6V34.215a1.246,1.246,0,0,1,.1-.6.463.463,0,0,1,.356-.15h2.956a.4.4,0,0,1,.356.15c.1.1.1.3.1.6V53.826c0,.249.1.349.255.349h5.2a.6.6,0,0,1,.356.1c.1.1.1.25.1.5v1.3a1.317,1.317,0,0,1-.1.55.433.433,0,0,1-.356.1Z" transform="translate(-30 -30.063)" fill="#ee4036"/>
    <path id="Path_25" data-name="Path 25" d="M122.843,54.469a.5.5,0,0,1-.458-.2.881.881,0,0,1-.2-.5v-1.1a.3.3,0,0,1,.051-.2c0-.05.051-.1.051-.15a.182.182,0,0,0,.051-.15c0-.05.051-.1.1-.15s.1-.1.1-.15.051-.05.1-.15l.153-.149c.05,0,.1-.05.152-.15q.153-.075.153-.15l4.484-4.5a.43.43,0,0,0,.153-.3.362.362,0,0,0-.2-.3L123.1,41.812a1.39,1.39,0,0,0-.255-.2c-.1-.1-.2-.15-.2-.2l-.153-.15c-.1-.1-.153-.149-.153-.2s-.051-.1-.1-.2-.051-.15-.1-.25V39.261a.633.633,0,0,1,.2-.5.652.652,0,0,1,.459-.2.833.833,0,0,1,.509.2l5.809,5.553.612.6a1.746,1.746,0,0,1,.3.451,1.517,1.517,0,0,1,.153.65v1.05c0,.05-.051.15-.051.2a.373.373,0,0,0-.051.2c0,.05-.051.1-.1.2a.638.638,0,0,1-.1.15.865.865,0,0,1-.153.2l-.153.149-.2.2c-.1.1-.2.15-.2.2L123.4,54.218A.879.879,0,0,1,122.843,54.469Z" transform="translate(-30 -30.157)" fill="#ee4036"/>
  </g>
</svg>
